[center]
[img]http://img69.imageshack.us/img69/7082/theinnkeepersposter.jpg[/img]

IMDB Link: 
http://www.imdb.com/title/tt1594562/

Description:
During the final days at the Yankee Pedlar Inn, two employees determined to reveal the hotel's haunted past begin to experience disturbing events as old guests check in for a stay. 

MediaInfo:
General
Complete name                    : The.Innkeepers.2011.HDRiP.XviD.AC3-SiC.avi
Format                           : AVI
Format/Info                      : Audio Video Interleave
File size                        : 1.31 GiB
Duration                         : 1h 41mn
Overall bit rate                 : 1 855 Kbps

Video
ID                               : 0
Format                           : MPEG-4 Visual
Format profile                   : Advanced Simple@L5
Format settings, BVOP            : 2
Format settings, QPel            : No
Format settings, GMC             : No warppoints
Format settings, Matrix          : Default (H.263)
Muxing mode                      : Packed bitstream
Codec ID                         : XVID
Codec ID/Hint                    : XviD
Duration                         : 1h 41mn
Bit rate                         : 1 655 Kbps
Width                            : 720 pixels
Height                           : 304 pixels
Display aspect ratio             : 2.35:1
Frame rate                       : 23.976 fps
Color space                      : YUV
Chroma subsampling               : 4:2:0
Bit depth                        : 8 bits
Scan type                        : Progressive
Compression mode                 : Lossy
Bits/(Pixel*Frame)               : 0.315
Stream size                      : 1.17 GiB (89%)
Writing library                  : XviD 1.1.2 (UTC 2006-11-01)

Audio
ID                               : 1
Format                           : AC-3
Format/Info                      : Audio Coding 3
Mode extension                   : CM (complete main)
Codec ID                         : 2000
Duration                         : 1h 41mn
Bit rate mode                    : Constant
Bit rate                         : 192 Kbps
Channel(s)                       : 2 channels
Channel positions                : Front: L R
Sampling rate                    : 48.0 KHz
Bit depth                        : 16 bits
Compression mode                 : Lossy
Stream size                      : 139 MiB (10%)
Alignment                        : Aligned on interleaves
Interleave, duration             : 64 ms (1.53 video frames)
Interleave, preload duration     : 192 ms
Title                            : innkeepers

Screenshots:

[img]http://img718.imageshack.us/img718/6675/scrncp00002.png[/img]
[img]http://img688.imageshack.us/img688/4189/scrncp00009.png[/img]
[img]http://img259.imageshack.us/img259/5965/scrncp00013.png[/img]
[img]http://img708.imageshack.us/img708/8049/scrncp00019.png[/img]
[img]http://img851.imageshack.us/img851/6585/scrncp00020.png[/img]


Note : Encoded from a 720p HD wmv Digital VOD Rental. Unfortunately the source wmv rental file only included 192 kbps 2.0 audio. Other than that the usual stuff was done and i think this one turned out pretty nice. Hits theatres in February. Enjoy it early!

Source: 720p wmv Digital VOD Rental / Our Own

Enjoy!

Respects to T00NG0D, ELEKTRI4KA, PA, YeFsTe, Box, MrRep and everyone in the struggle...
[/center]